<svg width="100" height="41" viewBox="0 0 100 41" fill="none" xmlns="http://www.w3.org/2000/svg">
<path fill-rule="evenodd" clip-rule="evenodd" d="M63.179 0H61.7705V11.2676H63.179V0ZM91.1467 6.43959V0.101562H92.3539V3.9245H93.7624V5.03114H92.3539V6.43959H91.1467ZM89.9394 1.007H85.0099V2.41545H88.3298C88.3298 2.41545 87.9273 3.42148 86.7201 4.52812C85.5129 5.63476 84.5068 6.23838 84.5068 6.23838L85.6135 7.24442C88.516 5.54296 89.3275 3.8747 89.9301 2.63586L89.9394 2.61665V1.007ZM66.3983 3.31975C66.3983 1.81958 67.6145 0.603455 69.1146 0.603455C70.6148 0.603455 71.8309 1.81958 71.8309 3.31975C71.8309 4.81992 70.6148 6.03605 69.1146 6.03605C67.6145 6.03605 66.3983 4.81992 66.3983 3.31975ZM67.8065 3.3195C67.8065 2.5972 68.3921 2.01166 69.1144 2.01166C69.8367 2.01166 70.4222 2.5972 70.4222 3.3195C70.4222 4.04181 69.8367 4.62735 69.1144 4.62735C68.3921 4.62735 67.8065 4.04181 67.8065 3.3195ZM89.6377 6.43945C88.1375 6.43945 86.9214 7.65558 86.9214 9.15575C86.9214 10.6559 88.1375 11.872 89.6377 11.872C91.1379 11.872 92.354 10.6559 92.354 9.15575C92.354 7.65558 91.1379 6.43945 89.6377 6.43945ZM89.6379 7.84766C88.9156 7.84766 88.3301 8.4332 88.3301 9.1555C88.3301 9.87781 88.9156 10.4634 89.6379 10.4634C90.3602 10.4634 90.9458 9.87781 90.9458 9.1555C90.9458 8.4332 90.3602 7.84766 89.6379 7.84766ZM84.6081 13.8828H84.6079C79.5518 13.8829 75.4531 17.9817 75.4531 23.0377C75.4531 28.0939 79.5519 32.1927 84.6081 32.1927C89.6642 32.1927 93.763 28.0939 93.763 23.0377C93.763 20.8392 92.988 18.8217 91.6964 17.2435L93.7628 15.6937V13.8828H84.6081ZM84.5078 17.9062C81.6185 17.9062 79.2764 20.2484 79.2764 23.1376C79.2764 26.0269 81.6185 28.369 84.5078 28.369C87.397 28.369 89.7391 26.0269 89.7391 23.1376C89.7391 20.2484 87.397 17.9062 84.5078 17.9062ZM52.8167 32.3945H48.7925C48.7925 32.3945 48.0883 36.4187 43.863 36.4187C39.6376 36.4187 38.8328 32.3945 38.8328 32.3945H34.6074C34.6074 32.3945 36.0159 40.4428 43.863 40.4428C51.71 40.4428 52.8167 32.3945 52.8167 32.3945ZM93.5613 32.3945H89.5372C89.5372 32.3945 88.8329 36.4187 84.6076 36.4187C80.3822 36.4187 79.5774 32.3945 79.5774 32.3945H75.3521C75.3521 32.3945 76.7605 40.4428 84.6076 40.4428C92.4547 40.4428 93.5613 32.3945 93.5613 32.3945ZM58.2495 1.00586C56.7493 1.00586 55.5332 2.22199 55.5332 3.72216C55.5332 4.97879 56.3865 6.03612 57.5453 6.3463V7.54613H55.1309V8.85398H61.3683V7.54613H58.9538V6.34626C60.1125 6.03604 60.9658 4.97874 60.9658 3.72216C60.9658 2.22199 59.7497 1.00586 58.2495 1.00586ZM58.2493 2.41406C57.527 2.41406 56.9414 2.99961 56.9414 3.72191C56.9414 4.44421 57.527 5.02976 58.2493 5.02976C58.9716 5.02976 59.5571 4.44421 59.5571 3.72191C59.5571 2.99961 58.9716 2.41406 58.2493 2.41406ZM83.0983 0.101562V11.168H81.891V5.43355H80.885V10.8662H79.6777V0.403373H80.885V4.12571H81.891V0.101562H83.0983ZM79.0745 7.8468V6.43835H76.3582V1.60938H74.9497V7.8468H79.0745ZM73.6417 6.4375V7.74535H71.5291V11.2665H70.02V7.74535H68.1085V11.2665H66.8007V7.74535H64.5874V6.4375H73.6417ZM95.7744 30.2826C95.7744 29.1158 96.7203 28.1699 97.8871 28.1699C99.0539 28.1699 99.9998 29.1158 99.9998 30.2826C99.9998 31.4494 99.0539 32.3953 97.8871 32.3953C96.7203 32.3953 95.7744 31.4494 95.7744 30.2826ZM55.0303 13.8828V32.1927H59.0544V23.0378C59.0544 21.6294 60.0605 18.0076 64.2858 18.0076C68.5112 18.0076 69.2154 22.1324 69.2154 23.0378V32.1927H73.3401V24.5469C73.6419 17.1022 68.5112 13.6818 64.2858 13.9835C60.4629 13.9835 59.0544 15.5931 59.0544 15.5931V13.8828H55.0303ZM52.9173 23.7429V13.9844H48.7925V22.8375C48.7925 23.4411 48.4907 28.1695 43.863 28.1695C39.2352 28.1695 38.7322 23.6423 38.7322 22.8375C38.7322 22.0327 38.6316 13.9844 38.6316 13.9844H34.6074V23.6423C34.6074 25.252 35.8147 32.3948 43.863 32.3948C51.9112 32.3948 52.9173 24.749 52.9173 23.7429ZM32.3943 13.9844V23.7429C32.3943 24.749 31.3883 32.3948 23.34 32.3948C19.7869 32.3948 17.5671 31.0027 16.1959 29.3091C14.8582 30.992 12.7029 32.3948 9.25553 32.3948C1.20724 32.3948 0 25.252 0 23.6423V13.9844H4.02414C4.02414 13.9844 4.12475 22.0327 4.12475 22.8375C4.12475 23.6423 4.62777 28.1695 9.25553 28.1695C12.8175 28.1695 13.8166 25.3683 14.0879 23.8028C14.0856 23.7445 14.0845 23.6909 14.0845 23.6423V13.9844H14.1851H18.1086H18.3099V23.7429L18.3097 23.7629C18.6034 25.3468 19.6858 28.1695 23.34 28.1695C27.9678 28.1695 28.2696 23.4411 28.2696 22.8375V13.9844H32.3943Z" fill="#9611FF"/>
</svg>
